<?xml version="1.0" encoding="UTF-8"?>
<!DOCTYPE svg PUBLIC "-//W3C//DTD SVG 1.1//EN" "http://www.w3.org/Graphics/SVG/1.1/DTD/svg11.dtd">
<!-- Creator: CorelDRAW 2019 (64-Bit) -->
<svg xmlns="http://www.w3.org/2000/svg" xml:space="preserve" width="156px" height="68px" version="1.1" shape-rendering="geometricPrecision" text-rendering="geometricPrecision" image-rendering="optimizeQuality" fill-rule="evenodd" clip-rule="evenodd"
viewBox="0 0 155.999 68.079"
 xmlns:xlink="http://www.w3.org/1999/xlink">
 <g id="Layer_x0020_1">
  <metadata id="CorelCorpID_0Corel-Layer"/>
  <g id="_2748347129552">
   <path fill="#D9E0EB" d="M28.933 44.743c4.822,0 8.823,-3.977 8.823,-8.896l-0.102 -9c-2.36,0 -4.309,1.988 -4.309,4.5l-0.103 4.919c-0.206,2.302 -2.052,3.977 -4.31,3.977 -2.462,0 -4.412,-1.989 -4.412,-4.396 0,-2.511 1.95,-4.5 4.412,-4.5l4.411 0c0,-2.197 -1.539,-3.976 -3.591,-4.395 -0.718,-0.105 -1.435,-0.105 -2.154,0 -4.206,0.628 -7.489,4.395 -7.489,8.895 0,4.919 4.001,8.896 8.823,8.896l0.001 0 0 0zm124.761 22.29c0,-0.105 0,-0.209 0.102,-0.314 0,-0.105 0.103,-0.209 0.103,-0.314 0.104,0 0.205,-0.105 0.309,-0.105 0.103,-0.105 0.204,-0.105 0.307,-0.105 0.104,0 0.205,0 0.308,0.105 0.104,0 0.205,0.105 0.309,0.105 0,0.105 0.103,0.209 0.103,0.314 0.103,0.105 0.103,0.209 0.103,0.314 0,0.105 0,0.209 -0.103,0.314 0,0.105 -0.103,0.105 -0.103,0.209 -0.104,0.105 -0.205,0.105 -0.309,0.209 -0.103,0 -0.204,0 -0.308,0 -0.103,0 -0.204,0 -0.307,0 -0.104,-0.104 -0.205,-0.104 -0.309,-0.209 0,-0.105 -0.103,-0.105 -0.103,-0.209 -0.102,-0.105 -0.102,-0.209 -0.102,-0.314zm2.257 -3.977c0,0.523 -0.204,0.942 -0.513,1.361 -0.41,0.418 -0.82,0.627 -1.232,0.627l-1.539 0 -0.102 0 -0.308 0 0 0c-0.821,-0.104 -1.437,-0.314 -1.744,-0.627 -0.308,-0.315 -0.411,-0.733 -0.411,-1.256l0 -5.756 1.233 0 0 5.232c0,0.524 0,0.837 0.205,1.047 0.103,0.104 0.512,0.104 1.128,0.104l0 0 1.129 0c0.41,0 0.718,-0.104 0.821,-0.314 0,-0.105 0.102,-0.314 0.102,-0.628l0 -1.674 1.232 0 0 1.884 0 0 -0.001 0zm-9.336 -3.767c0,-0.105 0,-0.21 0,-0.314 0.103,-0.105 0.103,-0.21 0.204,-0.21 0.103,-0.105 0.103,-0.209 0.205,-0.209 0.103,0 0.205,-0.105 0.308,-0.105 0.206,0 0.308,0.105 0.308,0.105 0.103,0 0.205,0.105 0.308,0.209 0.103,0 0.103,0.105 0.205,0.21 0,0.104 0,0.209 0,0.314 0,0.105 0,0.209 0,0.314 -0.102,0.105 -0.102,0.209 -0.205,0.314 -0.103,0 -0.205,0.105 -0.308,0.105 0,0.104 -0.102,0.104 -0.308,0.104 -0.103,0 -0.205,0 -0.308,-0.104 -0.102,0 -0.102,-0.105 -0.205,-0.105 -0.103,-0.105 -0.103,-0.209 -0.204,-0.314 0,-0.105 0,-0.209 0,-0.314zm2.051 3.767c0,0.523 -0.205,0.942 -0.513,1.361 -0.41,0.418 -0.82,0.627 -1.231,0.627l-1.436 0 -0.514 0 0 -0.104c-0.614,0 -1.129,-0.315 -1.436,-0.733 -0.205,0.523 -0.718,0.837 -1.539,0.837l-6.259 0c-0.512,0 -0.821,-0.209 -1.231,-0.628 -0.308,-0.314 -0.41,-0.837 -0.41,-1.36l0 -1.884 1.129 0 0 1.674c0,0.315 0.103,0.524 0.103,0.628 0.205,0.211 0.41,0.315 0.82,0.315l5.746 0c0.411,0 0.616,-0.104 0.616,-0.419 0,-0.105 -0.103,-0.314 -0.205,-0.523l-2.976 -3.348 -0.205 -1.151 4.617 -1.884 0.205 1.151 -3.489 1.361 3.181 3.662 0.924 0.941c0.205,0.106 0.513,0.21 0.923,0.21l0 0 1.026 0c0.41,0 0.718,-0.104 0.821,-0.315 0,-0.105 0.103,-0.314 0.103,-0.628l0 -1.674 1.232 0 0 1.884 0 0 -0.002 0zm-17.749 0c0,0.523 -0.103,0.942 -0.514,1.361 -0.308,0.418 -0.718,0.627 -1.128,0.627l-1.539 0 -0.103 0 -0.308 0 0 0c-0.513,-0.104 -0.821,-0.104 -1.026,-0.209 -0.205,-0.105 -0.308,-0.314 -0.513,-0.628l-0.102 -0.628c-0.514,0.315 -0.924,0.628 -1.437,0.838 -0.411,0.209 -0.718,0.314 -0.924,0.418 -0.513,0.105 -1.333,0.209 -2.462,0.209l0 0 -0.41 0 0 0 -5.643 0c-0.821,0 -1.334,-0.314 -1.642,-0.942 -0.513,0.628 -1.026,0.942 -1.642,0.942l-1.025 0 -0.41 0 -5.643 0c-0.82,0 -1.335,-0.314 -1.641,-0.942 -0.513,0.628 -1.027,0.942 -1.642,0.942l-0.924 0 -0.513 0 -0.615 0 0 0.523c0,0.733 -0.205,1.36 -0.719,1.778 -0.615,0.524 -1.128,0.733 -1.846,0.733l-1.847 0c-0.924,0 -1.642,-0.314 -2.257,-1.046 -0.411,-0.628 -0.719,-1.465 -0.719,-2.407l0 -2.198 1.232 0 0 2.617c0,0.418 0.205,0.837 0.41,1.256 0.41,0.418 0.923,0.626 1.642,0.626l1.539 0c0.308,0 0.718,-0.103 0.923,-0.313 0.308,-0.315 0.513,-0.628 0.513,-1.047 0,-0.209 -0.205,-0.418 -0.615,-0.418 -0.308,-0.105 -0.924,-0.105 -1.847,-0.105l-0.103 -1.256 4.309 0 0.513 0 0.82 0c0.514,0 0.821,-0.314 0.821,-0.837l0 -1.779 1.231 0 0 1.569c0,0.733 0.309,1.047 1.129,1.047 0.41,-1.151 0.923,-1.989 1.539,-2.617 0.513,-0.732 1.129,-1.046 1.744,-1.046 0.308,0 0.615,0.105 0.923,0.314 0.718,0.523 1.129,1.256 1.129,2.198 0,0.314 0,0.732 -0.103,1.151l0.616 0 0.41 0 0.923 0c0.513,0 0.821,-0.314 0.821,-0.837l0 -1.779 1.128 0 0 1.569c0,0.733 0.411,1.047 1.232,1.047 0.41,-1.151 0.923,-1.99 1.436,-2.617 0.616,-0.733 1.232,-1.046 1.847,-1.046 0.308,0 0.616,0.105 0.924,0.313 0.718,0.524 1.128,1.257 1.128,2.199 0,0.314 -0.102,0.732 -0.204,1.151l0.718 0 0.411 0 0.512 0c0.41,0 0.719,0 0.924,0 0.512,-0.105 0.924,-0.21 1.334,-0.42 0.308,-0.105 0.718,-0.314 1.23,-0.628l1.129 -0.627c-0.103,-0.315 -0.41,-0.523 -0.82,-0.628 -0.41,-0.105 -1.436,-0.105 -3.077,-0.105l-0.206 -1.256 2.976 0c0.718,0 1.334,0.314 1.744,0.733 0.41,0.418 0.718,1.046 0.718,1.883l-1.129 0.524c0,0.314 0.411,0.523 1.232,0.523l1.435 0c0.411,0 0.616,-0.105 0.821,-0.314 0,-0.105 0,-0.314 0,-0.629l0 -1.673 1.232 0 0 1.883 0 0 0 0.003zm-1.437 -3.872c0,-0.105 0,-0.209 0,-0.314 0.103,-0.105 0.103,-0.209 0.205,-0.314 0.103,0 0.103,-0.105 0.205,-0.105 0.103,-0.105 0.205,-0.105 0.308,-0.105 0.205,0 0.308,0 0.308,0.105 0.103,0 0.205,0.105 0.308,0.105 0.103,0.105 0.103,0.209 0.205,0.314 0,0.105 0,0.209 0,0.314 0,0.105 0,0.21 0,0.314 -0.102,0.105 -0.102,0.105 -0.205,0.211 -0.103,0.103 -0.205,0.103 -0.308,0.209 0,0 -0.103,0 -0.308,0 -0.103,0 -0.205,0 -0.308,0 -0.102,-0.106 -0.102,-0.106 -0.205,-0.209 -0.103,-0.106 -0.103,-0.106 -0.205,-0.211 0,-0.104 0,-0.209 0,-0.314zm-1.847 0c0,-0.105 0,-0.209 0.104,-0.314 0,-0.105 0.103,-0.209 0.103,-0.314 0.102,0 0.204,-0.105 0.308,-0.105 0.102,-0.105 0.205,-0.105 0.307,-0.105 0.103,0 0.206,0 0.309,0.105 0.102,0 0.204,0.105 0.204,0.105 0.103,0.105 0.206,0.209 0.206,0.314 0,0.105 0.103,0.209 0.103,0.314 0,0.105 -0.103,0.21 -0.103,0.314 0,0.105 -0.103,0.105 -0.206,0.211 0,0.103 -0.102,0.103 -0.204,0.209 -0.103,0 -0.206,0 -0.309,0 -0.102,0 -0.205,0 -0.307,0 -0.104,-0.106 -0.206,-0.106 -0.308,-0.209 0,-0.106 -0.103,-0.106 -0.103,-0.211 -0.104,-0.104 -0.104,-0.209 -0.104,-0.314zm-4.411 -0.732c0,-0.105 0,-0.21 0,-0.314 0.103,-0.105 0.103,-0.21 0.206,-0.315 0.101,-0.104 0.101,-0.104 0.204,-0.209 0.102,0 0.205,0 0.308,0 0.103,0 0.205,0 0.308,0 0.103,0.105 0.205,0.105 0.308,0.209 0.102,0.105 0.102,0.21 0.205,0.315 0,0.104 0,0.209 0,0.314 0,0.104 0,0.209 0,0.314 -0.103,0.105 -0.103,0.105 -0.205,0.209 -0.103,0.105 -0.205,0.105 -0.308,0.209 -0.103,0 -0.205,0 -0.308,0 -0.103,0 -0.206,0 -0.308,0 -0.103,-0.105 -0.103,-0.105 -0.204,-0.209 -0.104,-0.105 -0.104,-0.105 -0.206,-0.209 0,-0.105 0,-0.21 0,-0.314zm-4.514 4.186c0,-0.524 -0.104,-0.838 -0.308,-1.152 -0.103,0 -0.205,0 -0.411,-0.105 -0.307,0 -0.718,0.315 -1.128,0.838 -0.411,0.314 -0.718,0.942 -1.129,1.569l2.36 0c0.41,0 0.616,-0.314 0.616,-1.151l0 0.001zm-10.261 0c0,-0.524 -0.205,-0.838 -0.41,-1.152 0,0 -0.206,0 -0.308,-0.105 -0.411,0 -0.821,0.315 -1.232,0.838 -0.41,0.314 -0.718,0.942 -1.128,1.569l2.36 0c0.41,0 0.718,-0.314 0.718,-1.151l0 0.001 0 0zm-19.494 0c0,0.837 -0.204,1.36 -0.512,1.883 -0.411,0.419 -0.925,0.733 -1.539,0.733 -0.513,0 -0.924,-0.209 -1.335,-0.523 -0.41,0.209 -0.924,0.314 -1.539,0.314l0 0c-0.103,0 -0.204,0 -0.204,0l0 0c-0.104,0 -0.205,0 -0.309,0l0 0c-0.41,-0.105 -0.718,-0.105 -0.924,-0.209 -0.204,-0.105 -0.41,-0.315 -0.513,-0.628l-0.101 -0.629c-0.514,0.315 -1.027,0.629 -1.438,0.838 -0.41,0.209 -0.718,0.314 -1.026,0.419 -0.41,0.104 -1.231,0.209 -2.36,0.209l0 0 -0.41 0 0 0 -5.642 0c-0.821,0 -1.335,-0.314 -1.642,-0.942 -0.513,0.628 -1.026,0.942 -1.641,0.942l-1.026 0 -0.411 0 -0.41 0c0,0.837 -0.308,1.569 -0.821,2.197 -0.309,0.209 -0.616,0.419 -1.026,0.628 -0.41,0.105 -0.719,0.209 -1.232,0.209l-1.436 0 -0.205 -1.151 1.539 0c0.512,0 1.025,-0.209 1.436,-0.628 0.308,-0.314 0.513,-0.732 0.513,-1.256 -0.923,0 -1.641,-0.104 -2.052,-0.418 -0.718,-0.314 -1.026,-0.942 -1.026,-1.884 0,-1.046 0.205,-1.779 0.718,-2.197 0.308,-0.21 0.821,-0.419 1.437,-0.419 0.924,0 1.539,0.419 1.847,1.256 0.205,0.418 0.308,1.256 0.308,2.407l0.411 0 0.41 0 0.923 0c0.513,0 0.821,-0.314 0.821,-0.837l0 -1.779 1.128 0 0 1.57c0,0.732 0.41,1.046 1.233,1.046 0.41,-1.151 0.922,-1.988 1.435,-2.616 0.616,-0.733 1.233,-1.047 1.847,-1.047 0.308,0 0.615,0.105 0.925,0.314 0.718,0.524 1.128,1.256 1.128,2.198 0,0.314 -0.104,0.733 -0.205,1.151l0.718 0 0.411 0 0.513 0c0.41,0 0.718,0 0.922,0 0.411,-0.105 0.923,-0.209 1.335,-0.418 0.308,-0.105 0.718,-0.315 1.231,-0.628l1.129 -0.628c-0.104,-0.314 -0.411,-0.524 -0.821,-0.629 -0.41,-0.105 -1.437,-0.105 -3.078,-0.105l-0.205 -1.256 2.976 0c0.718,0 1.333,0.314 1.744,0.733 0.41,0.418 0.614,1.046 0.614,1.884l-1.025 0.523c0,0.314 0.41,0.524 1.232,0.524 0.512,0 0.922,0 1.025,-0.21 0,0 0,-0.314 0,-0.942 0,-0.628 0.206,-1.256 0.616,-1.779 0.308,-0.418 0.82,-0.732 1.539,-0.732 0.614,0 1.129,0.314 1.539,0.732 0.308,0.524 0.513,1.151 0.513,1.779l-0.002 0 0 0.001zm-1.025 0c0,-0.838 -0.308,-1.257 -1.026,-1.257 -0.719,0 -1.027,0.419 -1.027,1.257 0,0.941 0.308,1.36 1.027,1.36 0.718,0 1.026,-0.419 1.026,-1.36zm-12.929 0c0,-0.524 -0.103,-0.838 -0.308,-1.152 -0.102,0 -0.204,0 -0.41,-0.105 -0.308,0 -0.718,0.315 -1.231,0.838 -0.308,0.314 -0.719,0.942 -1.026,1.569l2.36 0c0.41,0 0.615,-0.314 0.615,-1.151l0 0.001 0 0zm-10.156 1.151l0 -1.151c0,-0.419 -0.205,-0.837 -0.41,-1.047 -0.206,-0.105 -0.411,-0.209 -0.616,-0.209 -0.308,0 -0.513,0.105 -0.615,0.209 -0.206,0.21 -0.308,0.524 -0.308,1.047 0,0.523 0.102,0.732 0.41,0.941 0.205,0.211 0.718,0.211 1.539,0.211l0 -0.001zm-4.617 -0.628c0,0.418 -0.103,0.837 -0.308,1.151 -0.308,0.523 -0.821,0.732 -1.539,0.732l-1.128 0c-1.539,0 -2.36,-0.627 -2.36,-1.883l0 -5.965 1.231 0 0 5.441c0,0.628 0.103,0.942 0.204,1.047 0.104,0.104 0.411,0.104 0.925,0.104l1.024 0c0.309,0 0.515,-0.104 0.719,-0.314 0.102,-0.105 0.102,-0.418 0.102,-0.837l0 -5.441 1.129 0 0 5.965 0.001 0zm-6.464 -0.105c0,0.523 -0.205,0.942 -0.513,1.361 -0.308,0.418 -0.718,0.627 -1.231,0.627l-6.259 0c-0.41,0 -0.821,-0.209 -1.231,-0.627 -0.308,-0.419 -0.411,-0.838 -0.411,-1.361l0 -1.884 1.129 0 0 1.675c0,0.314 0.103,0.523 0.103,0.628 0.103,0.209 0.41,0.314 0.82,0.314l5.542 0c0.41,0 0.614,-0.105 0.718,-0.314 0.103,-0.105 0.205,-0.314 0.205,-0.628l0 -1.675 1.128 0 0 1.884 0 0 0 0zm-4.514 -3.767c0,-0.105 0,-0.21 0,-0.314 0.102,-0.105 0.102,-0.21 0.205,-0.315 0.103,0 0.103,-0.104 0.205,-0.104 0.103,-0.105 0.204,-0.105 0.308,-0.105 0.103,0 0.204,0 0.307,0.105 0.104,0 0.205,0.104 0.309,0.104 0.103,0.105 0.103,0.21 0.205,0.315 0,0.104 0,0.209 0,0.314 0,0.105 0,0.209 0,0.314 -0.104,0.105 -0.104,0.209 -0.205,0.209 -0.104,0.105 -0.205,0.209 -0.309,0.209 -0.103,0 -0.204,0.105 -0.307,0.105 -0.104,0 -0.205,-0.105 -0.308,-0.105 -0.104,0 -0.104,-0.105 -0.205,-0.209 -0.104,0 -0.104,-0.105 -0.205,-0.209 0,-0.105 0,-0.209 0,-0.314zm-1.847 0c0,-0.105 0,-0.21 0.103,-0.314 0,-0.105 0.102,-0.21 0.102,-0.315 0.103,0 0.206,-0.104 0.308,-0.104 0.103,-0.105 0.205,-0.105 0.308,-0.105 0.103,0 0.205,0 0.308,0.105 0.103,0 0.205,0.104 0.205,0.104 0.103,0.105 0.206,0.21 0.206,0.315 0,0.104 0.102,0.209 0.102,0.314 0,0.105 -0.102,0.209 -0.102,0.314 0,0.105 -0.103,0.209 -0.206,0.209 0,0.105 -0.103,0.209 -0.205,0.209 -0.103,0 -0.205,0.105 -0.308,0.105 -0.103,0 -0.205,-0.105 -0.308,-0.105 -0.102,0 -0.205,-0.105 -0.308,-0.209 0,0 -0.102,-0.105 -0.102,-0.209 -0.103,-0.105 -0.103,-0.209 -0.103,-0.314zm-6.259 4.081c0,0.523 -0.205,0.942 -0.513,1.256 -0.308,0.209 -0.718,0.418 -1.231,0.418l-3.694 0 -0.205 -1.256 3.796 0c0.411,0 0.718,-0.104 0.718,-0.418 0,-0.209 -0.103,-0.314 -0.205,-0.524l-2.666 -2.825 0.718 -0.837 2.77 2.93c0.308,0.314 0.513,0.837 0.513,1.256l-0.001 0zm-6.976 1.674l-1.232 0 0 -7.848 1.232 0 0 7.848zm-2.873 -0.209c0,0.837 -0.308,1.57 -0.821,2.302 -0.615,0.628 -1.333,0.942 -2.154,0.942l-1.539 0 -0.205 -1.256 1.333 0c0.719,0 1.232,-0.209 1.642,-0.523 0.308,-0.314 0.513,-0.733 0.513,-1.151l0 -3.977 1.232 0 0 3.663 -0.001 0 0 0zm-5.336 0.314c0,0.733 -0.307,1.361 -0.923,1.988 -0.615,0.628 -1.231,0.942 -2.154,0.942l-1.437 0 -0.205 -1.151 1.539 0c0.513,0 1.026,-0.209 1.436,-0.628 0.308,-0.314 0.513,-0.732 0.513,-1.256 -0.923,0 -1.641,-0.104 -2.052,-0.418 -0.718,-0.314 -1.025,-0.942 -1.025,-1.884 0,-1.046 0.205,-1.779 0.718,-2.197 0.308,-0.21 0.82,-0.419 1.436,-0.419 0.924,0 1.539,0.419 1.847,1.151 0.205,0.523 0.308,1.255 0.308,2.407l0 1.466 -0.001 -0.001 0 0zm-1.231 -1.36l0 -1.256c0,-0.732 -0.307,-1.152 -0.923,-1.152 -0.308,0 -0.513,0.105 -0.616,0.21 -0.205,0.21 -0.307,0.524 -0.307,1.047 0,0.523 0.102,0.837 0.41,0.941 0.205,0.21 0.718,0.21 1.436,0.21l0 0.001 0 -0.001zm-4.206 -1.151l-2.771 1.569c-0.513,0.419 -1.128,0.628 -1.641,0.733 -0.411,0 -1.129,0.105 -1.95,0.105l0 0 -0.205 0 0 0 -0.308 0 0 0c-0.82,-0.105 -1.334,-0.314 -1.641,-0.628 -0.309,-0.314 -0.411,-0.733 -0.411,-1.256l0 -5.756 1.232 0 0 5.233c0,0.523 0,0.837 0.205,1.046 0.103,0.105 0.513,0.105 1.027,0.105l0.101 0 0.411 0c0.513,0 0.821,0 0.923,0 0.513,-0.105 1.026,-0.21 1.437,-0.419 0.308,-0.105 0.718,-0.314 1.129,-0.628l1.128 -0.627c-0.103,-0.315 -0.308,-0.524 -0.821,-0.628 -0.307,-0.105 -1.334,-0.105 -3.078,-0.105l-0.102 -1.256 2.873 0c1.641,0 2.463,0.837 2.463,2.512l-0.001 0zm-4.207 -4.396c0,-0.104 0,-0.209 0.103,-0.314 0,-0.105 0.103,-0.105 0.103,-0.209 0.103,-0.105 0.205,-0.105 0.308,-0.209 0.102,0 0.205,0 0.308,0 0.102,0 0.205,0 0.307,0 0.103,0.105 0.206,0.105 0.206,0.209 0.103,0.105 0.205,0.105 0.205,0.209 0,0.105 0.103,0.21 0.103,0.314 0,0.105 -0.103,0.21 -0.103,0.314 0,0.105 -0.103,0.21 -0.205,0.315 0,0.104 -0.103,0.104 -0.206,0.209 -0.102,0 -0.205,0 -0.307,0 -0.103,0 -0.206,0 -0.308,0 -0.103,-0.105 -0.205,-0.105 -0.308,-0.209 0,-0.105 -0.103,-0.21 -0.103,-0.315 -0.103,-0.104 -0.103,-0.209 -0.103,-0.314zm-8.31 1.047c0,-0.105 0.102,-0.21 0.102,-0.314 0,-0.105 0.103,-0.21 0.206,-0.21 0,-0.105 0.102,-0.209 0.205,-0.209 0.102,0 0.205,-0.105 0.308,-0.105 0.103,0 0.205,0.105 0.308,0.105 0.102,0 0.205,0.105 0.308,0.209 0,0 0.102,0.105 0.102,0.21 0.103,0.104 0.103,0.209 0.103,0.314 0,0.105 0,0.209 -0.103,0.314 0,0.105 -0.102,0.209 -0.102,0.314 -0.103,0 -0.206,0.105 -0.308,0.105 -0.103,0.104 -0.205,0.104 -0.308,0.104 -0.103,0 -0.206,0 -0.308,-0.104 -0.103,0 -0.205,-0.105 -0.205,-0.105 -0.103,-0.105 -0.206,-0.209 -0.206,-0.314 0,-0.105 -0.102,-0.209 -0.102,-0.314zm2.052 3.767c0,0.523 -0.103,0.942 -0.514,1.361 -0.307,0.418 -0.718,0.627 -1.128,0.627l-1.539 0 0 0 -0.41 0 0 0c-0.308,-0.104 -0.513,-0.104 -0.718,-0.209 -0.104,-0.105 -0.514,-0.418 -1.232,-1.151 -0.411,1.046 -1.129,1.465 -2.155,1.465 -0.615,0 -1.231,-0.209 -1.641,-0.628 -0.41,-0.523 -0.616,-1.046 -0.616,-1.674 0,-0.419 0.103,-0.942 0.411,-1.361 0.204,-0.209 0.512,-0.627 0.922,-1.046l-0.307 -0.418 0.82 -0.837 3.488 3.871c0.31,0.314 0.514,0.523 0.719,0.628 0.104,0.105 0.309,0.105 0.615,0.105l1.232 0c0.41,0 0.615,-0.105 0.82,-0.314 0,-0.105 0,-0.314 0,-0.628l0 -1.674 1.233 0 0 1.883 0 0 0 0zm-6.567 -0.105c0,-0.209 -0.103,-0.418 -0.205,-0.732l-0.923 -0.942c-0.514,0.418 -0.821,0.732 -0.924,0.942 -0.103,0.209 -0.205,0.523 -0.205,0.732 0,0.21 0.104,0.419 0.308,0.628 0.205,0.314 0.41,0.419 0.821,0.419 0.308,0 0.615,-0.105 0.821,-0.419 0.204,-0.209 0.307,-0.418 0.307,-0.628l0 0zm103.42 -18.208c4.822,0 8.824,-3.977 8.824,-8.896l-0.103 -9c-2.36,0 -4.31,1.988 -4.31,4.5 0,1.256 0.103,4.709 -0.204,5.651 -0.514,1.884 -2.155,3.244 -4.207,3.244 -2.463,0 -4.412,-1.988 -4.412,-4.395 0,-2.511 1.949,-4.499 4.412,-4.499l4.309 0c0,-1.988 -1.231,-3.663 -2.975,-4.291 -1.026,-0.314 -2.258,-0.21 -3.283,0 -3.899,0.942 -6.875,4.499 -6.875,8.79 0,4.919 4.003,8.896 8.824,8.896zm40.322 -11.198l-3.898 0c0.82,-1.36 2.155,-2.198 3.796,-2.198l3.899 0c-0.82,1.257 -2.258,2.198 -3.797,2.198zm-8.824 3.453c0.617,4.396 4.311,7.744 8.721,7.744l8.824 0c0,-2.511 -1.95,-4.499 -4.411,-4.499l-4.412 0c-1.641,0 -2.976,-0.942 -3.796,-2.198l3.898 0c5.746,0 9.85,-5.546 8.516,-11.197l-8.618 0c-5.335,0 -9.439,4.814 -8.721,10.151l-0.001 -0.001 0 0zm-59.096 7.745l4.411 0 0 -5.861 1.232 -1.256c1.846,1.884 3.796,3.872 5.745,5.755 1.641,1.779 4.515,1.779 6.156,0l-8.823 -8.999 4.924 -5.024c1.95,-1.883 1.95,-4.709 0.206,-6.488 -3.181,3.244 -6.362,6.488 -9.44,9.628l0 -14.547c-2.462,0 -4.411,1.99 -4.411,4.396l0 22.395 0 0 0 0.001zm51.914 -7.535c-0.616,1.779 -2.257,3.035 -4.205,3.035 -2.464,0 -4.412,-1.989 -4.412,-4.5 0,-2.407 1.949,-4.395 4.412,-4.395 3.076,0 5.128,3.034 4.205,5.86l0 0zm-4.205 7.535c4.821,0 8.822,-3.977 8.822,-9.001l0 -17.789c-2.462,0 -4.411,1.988 -4.411,4.499l0 5.546c-5.849,-3.349 -13.236,0.838 -13.236,7.744 0,5.023 4.001,9.001 8.825,9.001l0 0zm-77.976 -17.896c-1.95,0 -3.797,0.628 -5.233,1.779 -0.821,-1.046 -2.154,-1.779 -3.591,-1.779l0 17.895 4.411 0 0 -8.895c0,-2.511 1.95,-4.5 4.412,-4.5l1.847 0c2.462,0 4.412,-1.988 4.412,-4.499l-6.259 0 0.001 -0.001 0 0zm17.544 17.896c2.052,0 3.899,-0.629 5.335,-1.78 0.821,1.047 2.052,1.78 3.489,1.78l0 -17.895c-2.36,0 -4.412,1.988 -4.412,4.5l0 4.499c0,2.408 -1.949,4.395 -4.412,4.395 -2.36,0 -4.309,-1.988 -4.309,-4.395l0 -4.499c0,-2.512 -2.052,-4.5 -4.411,-4.5l0 9c0,4.919 3.898,8.895 8.72,8.895l0 0 0 0zm-49.043 -8.582c-0.205,4.814 -4.001,8.582 -8.721,8.582l-8.823 0 0 -13.5c0,-2.407 1.949,-4.395 4.411,-4.395l0 13.396 4.412 0c2.36,0 4.411,-1.989 4.411,-4.396l0 -9c0,-2.408 -2.052,-4.395 -4.411,-4.395l-4.412 0c-2.462,0 -4.411,-2.093 -4.411,-4.5l8.208 0c0.41,0 0.718,0 1.128,0 4.618,0.314 8.209,4.186 8.209,8.895l0 8.686c0,0.209 0,0.419 0,0.628l-0.001 0 0 -0.001z"/>
   <g>
    <path fill="#D9E0EB" stroke="#D9E0EB" stroke-width="0.162" stroke-miterlimit="2.61313" d="M83.75 10.601c-1.572,-7.031 -8.712,-4.865 -13.573,-10.189 -0.393,-0.432 -0.336,-0.501 -0.325,0.139 0.061,3.576 0.816,10.695 5.912,13.8 1.023,0.624 3.296,1.481 4.518,1.414 0.681,-0.037 0.893,-0.488 0.341,-1.927 -1.395,-3.639 -4.291,-5.641 -7.297,-7.776 5.171,0.983 8.856,4.134 8.805,8.505 -0.016,1.385 1.189,1.165 1.545,0.256 0.398,-1.015 0.367,-2.91 0.074,-4.222l0 0z"/>
    <path fill="#D9E0EB" stroke="#D9E0EB" stroke-width="0.162" stroke-miterlimit="2.61313" d="M84.492 10.784c0.158,0.821 0.85,0.492 1.301,0.185 0.974,-0.661 2.307,-0.905 4.105,-0.841 -1.995,0.835 -3.911,1.609 -5.167,3.519 -0.569,0.866 -0.229,1.231 0.373,1.35 2.125,0.419 4.587,-1.394 5.732,-3.067 0.915,-1.336 1.526,-2.907 1.748,-4.282 0.114,-0.718 0.095,-0.523 -0.409,-0.198 -1.79,1.152 -3.598,1.114 -5.189,1.372 -1.203,0.197 -2.784,0.449 -2.494,1.962z"/>
   </g>
  </g>
 </g>
</svg>
