<?xml version="1.0" encoding="UTF-8"?>
<!DOCTYPE svg PUBLIC "-//W3C//DTD SVG 1.1//EN" "http://www.w3.org/Graphics/SVG/1.1/DTD/svg11.dtd">
<!-- Creator: CorelDRAW 2019 (64-Bit) -->
<svg xmlns="http://www.w3.org/2000/svg" xml:space="preserve" width="222px" height="50px" version="1.1" shape-rendering="geometricPrecision" text-rendering="geometricPrecision" image-rendering="optimizeQuality" fill-rule="evenodd" clip-rule="evenodd"
viewBox="0 0 222 49.92"
 xmlns:xlink="http://www.w3.org/1999/xlink">
 <g id="Layer_x0020_1">
  <metadata id="CorelCorpID_0Corel-Layer"/>
  <g id="_2748349746912">
   <path fill="#FFAE4A" d="M175.763 49.285c15.259,0 24.927,0 40.186,0 3.289,0 6.051,-2.65 6.051,-5.883l0 -7.435c0,-3.233 -2.762,-5.883 -6.051,-5.883 -15.325,0 -24.993,0 -40.384,0 0.658,4.138 -0.46,8.211 -2.63,11.507 1.709,2.005 2.828,4.656 2.828,7.565l0 0.129 0 0 0 0z"/>
   <polygon fill="#121621" fill-rule="nonzero" points="182.801,34.285 186.089,34.285 188.062,41.591 190.035,34.285 193.324,34.285 193.324,45.018 191.285,45.018 191.285,36.613 189.114,45.018 187.01,45.018 184.839,36.613 184.839,45.018 182.801,45.018 "/>
   <path id="_1" fill="#121621" fill-rule="nonzero" d="M202.992 45.018l-0.92 -2.393 -4.407 0 -0.921 2.393 -2.302 0 4.209 -10.733 2.368 0 4.341 10.733 -2.368 0zm-3.157 -8.211l-1.512 4.008 3.025 0 -1.512 -4.008 -0.001 0 0 0z"/>
   <path id="_2" fill="#121621" fill-rule="nonzero" d="M211.608 39.264l4.736 0 0 4.267c-0.196,0.259 -0.459,0.452 -0.789,0.646 -0.329,0.193 -0.724,0.388 -1.184,0.517 -0.855,0.388 -1.776,0.517 -2.631,0.517 -0.592,0 -1.118,-0.064 -1.644,-0.194 -0.46,-0.065 -0.921,-0.259 -1.381,-0.517 -0.395,-0.194 -0.79,-0.518 -1.119,-0.84 -0.328,-0.323 -0.592,-0.711 -0.789,-1.164 -0.197,-0.452 -0.395,-0.905 -0.46,-1.357 -0.132,-0.518 -0.198,-0.97 -0.198,-1.487 0,-0.582 0.066,-1.1 0.198,-1.617 0.131,-0.452 0.328,-0.969 0.526,-1.357 0.263,-0.453 0.526,-0.841 0.855,-1.164 0.394,-0.323 0.789,-0.581 1.249,-0.84 0.724,-0.388 1.579,-0.518 2.631,-0.518 0.658,0 1.25,0.065 1.776,0.195 0.526,0.129 0.987,0.323 1.381,0.646 0.395,0.259 0.724,0.583 0.987,0.97 0.197,0.387 0.394,0.84 0.46,1.293l-2.17 0.388c-0.132,-0.517 -0.461,-0.905 -0.855,-1.229 -0.395,-0.259 -0.921,-0.452 -1.579,-0.452 -0.526,0 -0.92,0.065 -1.315,0.258 -0.395,0.13 -0.724,0.388 -0.987,0.647 -0.263,0.323 -0.526,0.711 -0.657,1.164 -0.132,0.387 -0.198,0.904 -0.198,1.487 0,0.647 0.066,1.228 0.198,1.681 0.131,0.517 0.394,0.905 0.657,1.229 0.264,0.322 0.592,0.516 0.987,0.711 0.394,0.129 0.789,0.193 1.25,0.193 0.263,0 0.46,0 0.723,-0.065 0.263,0 0.461,-0.065 0.658,-0.193 0.263,-0.065 0.46,-0.195 0.658,-0.259 0.197,-0.13 0.395,-0.259 0.592,-0.387l0 -1.359 -2.565 0 0 -1.81 -0.001 0 0 0z"/>
   <g>
    <path fill="white" d="M19.489 40.363c-0.228,5.078 -4.501,9.126 -9.74,9.126l-9.749 0 0 -14.38c0,-2.627 2.193,-4.777 4.874,-4.777l0 14.381 4.875 0c2.693,0 4.875,-2.139 4.875,-4.777l0 -9.553c0,-2.639 -2.182,-4.777 -4.875,-4.777l-4.875 0c-2.681,0 -4.874,-2.149 -4.874,-4.776l9.125 0c0.406,0 0.811,-0.006 1.216,0.017 5.109,0.3 9.158,4.455 9.158,9.536l0 9.249c0,0.245 0.001,0.485 -0.01,0.73l0 0.001z"/>
    <path fill="white" stroke="white" stroke-width="0.162" stroke-miterlimit="2.61313" d="M93.323 12.449c-1.864,-7.985 -10.329,-5.525 -16.092,-11.572 -0.466,-0.49 -0.4,-0.567 -0.387,0.159 0.073,4.062 0.968,12.145 7.01,15.671 1.214,0.708 3.908,1.682 5.357,1.607 0.807,-0.042 1.058,-0.555 0.404,-2.189 -1.654,-4.132 -5.087,-6.407 -8.652,-8.83 6.132,1.116 10.501,4.694 10.44,9.658 -0.019,1.573 1.41,1.323 1.832,0.291 0.472,-1.154 0.435,-3.306 0.088,-4.794l0 -0.001z"/>
    <path fill="white" d="M73.889 49.468c2.196,0 4.224,-0.713 5.854,-1.914 0.891,1.161 2.308,1.914 3.895,1.914l0.001 -19.106c-2.682,0 -4.875,2.149 -4.875,4.776l-0.001 4.793c-0.02,2.649 -2.192,4.76 -4.874,4.76 -2.686,0 -4.864,-2.128 -4.875,-4.758l0 -4.795c0,-2.627 -2.194,-4.777 -4.875,-4.777l0 9.575c0.012,5.266 4.372,9.531 9.75,9.531l0 0.001z"/>
    <path fill="white" d="M54.394 30.361c-2.194,0 -4.219,0.711 -5.849,1.909 -0.891,-1.163 -2.31,-1.921 -3.9,-1.921l0 19.151 4.874 0 0 -9.575c0,-2.653 2.182,-4.787 4.875,-4.787l2.047 0c2.681,0 4.875,-2.151 4.875,-4.777l-6.922 0 0 0z"/>
    <path fill="white" d="M32.072 49.489c5.384,0 9.75,-4.276 9.75,-9.553l-0.021 -9.575c-2.681,0 -4.875,2.149 -4.875,4.777l-0.01 5.34c-0.275,2.382 -2.339,4.235 -4.844,4.235 -2.693,0 -4.874,-2.139 -4.874,-4.777 0,-2.638 2.181,-4.776 4.874,-4.776l4.848 0c0,-2.314 -1.701,-4.258 -3.939,-4.688 -0.754,-0.145 -1.594,-0.095 -2.343,0.014 -4.705,0.679 -8.316,4.651 -8.316,9.45 0,5.276 4.365,9.553 9.75,9.553l0 0z"/>
    <path fill="white" d="M118.533 49.489c5.384,0 9.75,-4.276 9.75,-9.553l-0.021 -9.575c-2.681,0 -4.875,2.149 -4.875,4.777 0,1.319 0.121,5.11 -0.161,6.094 -0.576,2.008 -2.459,3.481 -4.693,3.481 -2.692,0 -4.875,-2.139 -4.875,-4.777 0,-2.638 2.183,-4.776 4.875,-4.776l4.848 0c0,-2.125 -1.434,-3.936 -3.4,-4.553 -1.149,-0.359 -2.483,-0.241 -3.631,0.016 -4.333,0.971 -7.567,4.772 -7.567,9.313 0,5.276 4.365,9.553 9.75,9.553l0 0zm44.674 -11.973l-4.245 0c0.843,-1.428 2.418,-2.389 4.222,-2.389l4.245 0c-0.843,1.427 -2.418,2.389 -4.222,2.389zm-9.679 3.713c0.658,4.649 4.731,8.228 9.656,8.228l9.772 0c0,-2.627 -2.193,-4.777 -4.875,-4.777l-4.897 0c-1.804,0 -3.379,-0.962 -4.222,-2.389l4.245 0c6.405,0 11.021,-5.932 9.442,-11.942l-9.465 0c-5.949,0 -10.468,5.149 -9.656,10.88l0 0zm-65.604 8.239l4.875 0 0 -6.289 1.373 -1.347c2.086,2.1 4.24,4.17 6.357,6.244 1.895,1.858 4.998,1.858 6.893,0l-9.806 -9.626 5.492 -5.388c2.075,-2.035 2.097,-5.002 0.155,-6.903 -3.491,3.421 -6.972,6.842 -10.464,10.267l0 -15.604c-2.68,0 -4.874,2.149 -4.874,4.777l0 23.87 -0.001 -0.001zm57.57 -8.082c-0.633,1.918 -2.47,3.305 -4.639,3.305 -2.692,0 -4.874,-2.138 -4.874,-4.777 0,-2.638 2.182,-4.776 4.874,-4.776 3.358,0 5.636,3.227 4.639,6.247l0 0.001zm-4.639 8.082c5.385,0 9.75,-4.278 9.75,-9.553l-0.021 -19.085c-2.681,0 -4.875,2.149 -4.875,4.777l0 6.021c-6.41,-3.613 -14.603,0.883 -14.603,8.287 0,5.275 4.365,9.553 9.749,9.553z"/>
    <path fill="white" stroke="white" stroke-width="0.162" stroke-miterlimit="2.61313" d="M94.203 12.657c0.187,0.932 1.008,0.557 1.542,0.209 1.155,-0.75 2.735,-1.027 4.867,-0.955 -2.366,0.948 -4.636,1.827 -6.126,3.997 -0.675,0.983 -0.272,1.398 0.442,1.533 2.52,0.475 5.439,-1.584 6.796,-3.483 1.085,-1.518 1.811,-3.302 2.073,-4.864 0.136,-0.814 0.113,-0.593 -0.485,-0.224 -2.123,1.308 -4.266,1.266 -6.152,1.559 -1.427,0.222 -3.301,0.51 -2.957,2.228z"/>
   </g>
  </g>
 </g>
</svg>
